# xmcd
#
# Track frame offsets: 
#        150
#        15960
#        38365
#        57923
#        81123
#        87787
#        107278
#        119965
#        137461
#
# Disc length: 2082 seconds
#
# Revision: 0
# Processed by: cddbd v1.5.1PL0 Copyright (c) Steve Scherf et al.
# Submitted via: ExactAudioCopy v0.95a3
#
DISCID=5f082009
DTITLE=Phil Schoppe - Rain Songs
DYEAR=1999
DGENRE=Blues
TTITLE0=There goes a little Rain
TTITLE1=I want you
TTITLE2=Night Train
TTITLE3=Le Cafe L´univers
TTITLE4=I wish I was in Dublin
TTITLE5=In these Streets
TTITLE6=Song for Bob Dylan
TTITLE7=Red Hair
TTITLE8=Mit Träumen gepennt - add. Song
EXTD=
EXTT0=
EXTT1=
EXTT2=
EXTT3=
EXTT4=
EXTT5=
EXTT6=
EXTT7=
EXTT8=
PLAYORDER=
